<mxfile host="app.diagrams.net" modified="2023-12-30T12:32:24.146Z" agent="Mozilla/5.0 (Windows NT 10.0; Win64; x64) AppleWebKit/537.36 (KHTML, like Gecko) Chrome/120.0.0.0 Safari/537.36" etag="xWejcPLjQ7EG-hPeFfxz" version="22.1.16" type="device">
  <diagram name="Page-1" id="sSfkndseW_7MQ5ye6j1a">
    <mxGraphModel dx="1461" dy="1730" grid="1" gridSize="10" guides="1" tooltips="1" connect="1" arrows="1" fold="1" page="1" pageScale="1" pageWidth="850" pageHeight="1100" math="0" shadow="0">
      <root>
        <mxCell id="0" />
        <mxCell id="1" parent="0" />
        <mxCell id="sgyy4WJZRjxo7go0eEJR-72" value="" style="whiteSpace=wrap;html=1;fillColor=default;verticalAlign=middle;labelBackgroundColor=none;" parent="1" vertex="1">
          <mxGeometry x="60" y="-260" width="790" height="1000" as="geometry" />
        </mxCell>
        <mxCell id="sgyy4WJZRjxo7go0eEJR-2" value="User" style="shape=umlActor;verticalLabelPosition=bottom;verticalAlign=top;html=1;outlineConnect=0;labelBackgroundColor=none;" parent="1" vertex="1">
          <mxGeometry x="10" y="190" width="30" height="60" as="geometry" />
        </mxCell>
        <mxCell id="sgyy4WJZRjxo7go0eEJR-6" value="TO-DO lista" style="ellipse;whiteSpace=wrap;html=1;labelBackgroundColor=none;" parent="1" vertex="1">
          <mxGeometry x="130" y="300" width="120" height="80" as="geometry" />
        </mxCell>
        <mxCell id="sgyy4WJZRjxo7go0eEJR-7" value="čuvanje/učitavanje podataka" style="ellipse;whiteSpace=wrap;html=1;labelBackgroundColor=none;" parent="1" vertex="1">
          <mxGeometry x="350" y="110" width="120" height="80" as="geometry" />
        </mxCell>
        <mxCell id="sgyy4WJZRjxo7go0eEJR-9" value="podešavanja" style="ellipse;whiteSpace=wrap;html=1;labelBackgroundColor=none;" parent="1" vertex="1">
          <mxGeometry x="130" y="450" width="120" height="80" as="geometry" />
        </mxCell>
        <mxCell id="sgyy4WJZRjxo7go0eEJR-10" value="kalendar" style="ellipse;whiteSpace=wrap;html=1;labelBackgroundColor=none;" parent="1" vertex="1">
          <mxGeometry x="130" y="160" width="120" height="80" as="geometry" />
        </mxCell>
        <mxCell id="sgyy4WJZRjxo7go0eEJR-23" value="događaj" style="ellipse;whiteSpace=wrap;html=1;labelBackgroundColor=none;" parent="1" vertex="1">
          <mxGeometry x="460" y="360" width="120" height="80" as="geometry" />
        </mxCell>
        <mxCell id="sgyy4WJZRjxo7go0eEJR-29" value="podsetnik" style="ellipse;whiteSpace=wrap;html=1;labelBackgroundColor=none;" parent="1" vertex="1">
          <mxGeometry x="650" y="300" width="120" height="80" as="geometry" />
        </mxCell>
        <mxCell id="sgyy4WJZRjxo7go0eEJR-35" value="prioritizacija" style="ellipse;whiteSpace=wrap;html=1;labelBackgroundColor=none;" parent="1" vertex="1">
          <mxGeometry x="630" y="190" width="160" height="80" as="geometry" />
        </mxCell>
        <mxCell id="sgyy4WJZRjxo7go0eEJR-37" value="sinhronizacija" style="ellipse;whiteSpace=wrap;html=1;labelBackgroundColor=none;" parent="1" vertex="1">
          <mxGeometry x="350" y="-160" width="120" height="80" as="geometry" />
        </mxCell>
        <mxCell id="sgyy4WJZRjxo7go0eEJR-40" value="izbrisi" style="ellipse;whiteSpace=wrap;html=1;labelBackgroundColor=none;" parent="1" vertex="1">
          <mxGeometry x="590" y="530" width="120" height="80" as="geometry" />
        </mxCell>
        <mxCell id="sgyy4WJZRjxo7go0eEJR-42" value="izmeni postojeći" style="ellipse;whiteSpace=wrap;html=1;labelBackgroundColor=none;" parent="1" vertex="1">
          <mxGeometry x="460" y="530" width="120" height="80" as="geometry" />
        </mxCell>
        <mxCell id="sgyy4WJZRjxo7go0eEJR-58" value="Friend" style="shape=umlActor;verticalLabelPosition=bottom;verticalAlign=top;html=1;outlineConnect=0;labelBackgroundColor=none;" parent="1" vertex="1">
          <mxGeometry x="870" y="190" width="30" height="60" as="geometry" />
        </mxCell>
        <mxCell id="sgyy4WJZRjxo7go0eEJR-75" value="Aplikacija kOrganizify" style="text;html=1;align=center;verticalAlign=middle;resizable=0;points=[];autosize=1;strokeColor=none;fillColor=none;fontSize=25;labelBackgroundColor=none;" parent="1" vertex="1">
          <mxGeometry x="310" y="-260" width="260" height="40" as="geometry" />
        </mxCell>
        <mxCell id="sgyy4WJZRjxo7go0eEJR-76" value="pametni plan" style="ellipse;whiteSpace=wrap;html=1;labelBackgroundColor=none;" parent="1" vertex="1">
          <mxGeometry x="350" y="-60" width="120" height="80" as="geometry" />
        </mxCell>
        <mxCell id="mKfXotBZvSQ_9pwRW4Em-1" value="napravi novi&amp;nbsp;" style="ellipse;whiteSpace=wrap;html=1;" parent="1" vertex="1">
          <mxGeometry x="330" y="530" width="120" height="80" as="geometry" />
        </mxCell>
        <mxCell id="mKfXotBZvSQ_9pwRW4Em-19" value="" style="endArrow=none;html=1;rounded=0;" parent="1" target="sgyy4WJZRjxo7go0eEJR-10" edge="1">
          <mxGeometry width="50" height="50" relative="1" as="geometry">
            <mxPoint x="40" y="210" as="sourcePoint" />
            <mxPoint x="380" y="450" as="targetPoint" />
          </mxGeometry>
        </mxCell>
        <mxCell id="mKfXotBZvSQ_9pwRW4Em-20" value="" style="endArrow=none;html=1;rounded=0;" parent="1" target="sgyy4WJZRjxo7go0eEJR-6" edge="1">
          <mxGeometry width="50" height="50" relative="1" as="geometry">
            <mxPoint x="40" y="210" as="sourcePoint" />
            <mxPoint x="380" y="380" as="targetPoint" />
          </mxGeometry>
        </mxCell>
        <mxCell id="mKfXotBZvSQ_9pwRW4Em-21" value="" style="endArrow=none;html=1;rounded=0;entryX=1;entryY=0.3333333333333333;entryDx=0;entryDy=0;entryPerimeter=0;" parent="1" source="sgyy4WJZRjxo7go0eEJR-9" target="sgyy4WJZRjxo7go0eEJR-2" edge="1">
          <mxGeometry width="50" height="50" relative="1" as="geometry">
            <mxPoint x="330" y="600" as="sourcePoint" />
            <mxPoint x="380" y="550" as="targetPoint" />
          </mxGeometry>
        </mxCell>
        <mxCell id="mKfXotBZvSQ_9pwRW4Em-30" value="" style="endArrow=open;html=1;rounded=0;endFill=0;dashed=1;" parent="1" source="sgyy4WJZRjxo7go0eEJR-76" target="sgyy4WJZRjxo7go0eEJR-10" edge="1">
          <mxGeometry width="50" height="50" relative="1" as="geometry">
            <mxPoint x="370" y="230" as="sourcePoint" />
            <mxPoint x="420" y="180" as="targetPoint" />
          </mxGeometry>
        </mxCell>
        <mxCell id="mKfXotBZvSQ_9pwRW4Em-35" value="&amp;lt;&amp;lt;extend&amp;gt;&amp;gt;" style="edgeLabel;html=1;align=center;verticalAlign=middle;resizable=0;points=[];" parent="mKfXotBZvSQ_9pwRW4Em-30" vertex="1" connectable="0">
          <mxGeometry x="-0.1394" y="2" relative="1" as="geometry">
            <mxPoint as="offset" />
          </mxGeometry>
        </mxCell>
        <mxCell id="mKfXotBZvSQ_9pwRW4Em-31" value="" style="endArrow=open;html=1;strokeWidth=1;rounded=0;endFill=0;entryX=0.023;entryY=0.586;entryDx=0;entryDy=0;entryPerimeter=0;" parent="1" source="sgyy4WJZRjxo7go0eEJR-10" target="sgyy4WJZRjxo7go0eEJR-7" edge="1">
          <mxGeometry width="50" height="50" relative="1" as="geometry">
            <mxPoint x="370" y="200" as="sourcePoint" />
            <mxPoint x="420" y="150" as="targetPoint" />
          </mxGeometry>
        </mxCell>
        <mxCell id="mKfXotBZvSQ_9pwRW4Em-34" value="&amp;lt;&amp;lt;include&amp;gt;&amp;gt;" style="edgeLabel;html=1;align=center;verticalAlign=middle;resizable=0;points=[];" parent="mKfXotBZvSQ_9pwRW4Em-31" vertex="1" connectable="0">
          <mxGeometry x="-0.1987" y="2" relative="1" as="geometry">
            <mxPoint as="offset" />
          </mxGeometry>
        </mxCell>
        <mxCell id="mKfXotBZvSQ_9pwRW4Em-32" value="" style="endArrow=open;dashed=1;html=1;strokeWidth=1;rounded=0;endFill=0;entryX=0.5;entryY=0;entryDx=0;entryDy=0;" parent="1" target="sgyy4WJZRjxo7go0eEJR-10" edge="1">
          <mxGeometry width="50" height="50" relative="1" as="geometry">
            <mxPoint x="350" y="-110" as="sourcePoint" />
            <mxPoint x="223" y="176" as="targetPoint" />
          </mxGeometry>
        </mxCell>
        <mxCell id="mKfXotBZvSQ_9pwRW4Em-33" value="&amp;lt;&amp;lt;extend&amp;gt;&amp;gt;" style="edgeLabel;html=1;align=center;verticalAlign=middle;resizable=0;points=[];" parent="mKfXotBZvSQ_9pwRW4Em-32" vertex="1" connectable="0">
          <mxGeometry x="-0.1134" relative="1" as="geometry">
            <mxPoint as="offset" />
          </mxGeometry>
        </mxCell>
        <mxCell id="mKfXotBZvSQ_9pwRW4Em-36" value="" style="endArrow=open;html=1;rounded=0;endFill=0;" parent="1" source="sgyy4WJZRjxo7go0eEJR-10" target="sgyy4WJZRjxo7go0eEJR-23" edge="1">
          <mxGeometry width="50" height="50" relative="1" as="geometry">
            <mxPoint x="334" y="174" as="sourcePoint" />
            <mxPoint x="246" y="196" as="targetPoint" />
          </mxGeometry>
        </mxCell>
        <mxCell id="mKfXotBZvSQ_9pwRW4Em-38" value="&amp;lt;&amp;lt;include&amp;gt;&amp;gt;" style="edgeLabel;html=1;align=center;verticalAlign=middle;resizable=0;points=[];" parent="mKfXotBZvSQ_9pwRW4Em-36" vertex="1" connectable="0">
          <mxGeometry x="0.0458" y="-1" relative="1" as="geometry">
            <mxPoint as="offset" />
          </mxGeometry>
        </mxCell>
        <mxCell id="mKfXotBZvSQ_9pwRW4Em-47" value="" style="endArrow=open;html=1;rounded=0;endFill=0;dashed=1;exitX=0;exitY=1;exitDx=0;exitDy=0;" parent="1" source="sgyy4WJZRjxo7go0eEJR-35" target="sgyy4WJZRjxo7go0eEJR-23" edge="1">
          <mxGeometry width="50" height="50" relative="1" as="geometry">
            <mxPoint x="658" y="190" as="sourcePoint" />
            <mxPoint x="520" y="342" as="targetPoint" />
          </mxGeometry>
        </mxCell>
        <mxCell id="mKfXotBZvSQ_9pwRW4Em-48" value="&amp;lt;&amp;lt;extend&amp;gt;&amp;gt;" style="edgeLabel;html=1;align=center;verticalAlign=middle;resizable=0;points=[];" parent="mKfXotBZvSQ_9pwRW4Em-47" vertex="1" connectable="0">
          <mxGeometry x="-0.1394" y="2" relative="1" as="geometry">
            <mxPoint as="offset" />
          </mxGeometry>
        </mxCell>
        <mxCell id="mKfXotBZvSQ_9pwRW4Em-49" value="" style="endArrow=open;html=1;rounded=0;endFill=0;dashed=1;exitX=0;exitY=0.5;exitDx=0;exitDy=0;" parent="1" source="sgyy4WJZRjxo7go0eEJR-29" target="sgyy4WJZRjxo7go0eEJR-23" edge="1">
          <mxGeometry width="50" height="50" relative="1" as="geometry">
            <mxPoint x="673" y="258" as="sourcePoint" />
            <mxPoint x="562" y="376" as="targetPoint" />
          </mxGeometry>
        </mxCell>
        <mxCell id="mKfXotBZvSQ_9pwRW4Em-50" value="&amp;lt;&amp;lt;extend&amp;gt;&amp;gt;" style="edgeLabel;html=1;align=center;verticalAlign=middle;resizable=0;points=[];" parent="mKfXotBZvSQ_9pwRW4Em-49" vertex="1" connectable="0">
          <mxGeometry x="-0.1394" y="2" relative="1" as="geometry">
            <mxPoint as="offset" />
          </mxGeometry>
        </mxCell>
        <mxCell id="mKfXotBZvSQ_9pwRW4Em-52" value="" style="endArrow=block;html=1;rounded=0;endFill=0;entryX=0;entryY=1;entryDx=0;entryDy=0;" parent="1" source="mKfXotBZvSQ_9pwRW4Em-1" target="sgyy4WJZRjxo7go0eEJR-23" edge="1">
          <mxGeometry width="50" height="50" relative="1" as="geometry">
            <mxPoint x="530" y="440" as="sourcePoint" />
            <mxPoint x="580" y="390" as="targetPoint" />
          </mxGeometry>
        </mxCell>
        <mxCell id="mKfXotBZvSQ_9pwRW4Em-53" value="" style="endArrow=block;html=1;rounded=0;endFill=0;entryX=0.5;entryY=1;entryDx=0;entryDy=0;" parent="1" source="sgyy4WJZRjxo7go0eEJR-42" target="sgyy4WJZRjxo7go0eEJR-23" edge="1">
          <mxGeometry width="50" height="50" relative="1" as="geometry">
            <mxPoint x="427" y="544" as="sourcePoint" />
            <mxPoint x="503" y="446" as="targetPoint" />
          </mxGeometry>
        </mxCell>
        <mxCell id="mKfXotBZvSQ_9pwRW4Em-54" value="" style="endArrow=block;html=1;rounded=0;endFill=0;entryX=1;entryY=1;entryDx=0;entryDy=0;" parent="1" source="sgyy4WJZRjxo7go0eEJR-40" target="sgyy4WJZRjxo7go0eEJR-23" edge="1">
          <mxGeometry width="50" height="50" relative="1" as="geometry">
            <mxPoint x="530" y="540" as="sourcePoint" />
            <mxPoint x="530" y="450" as="targetPoint" />
          </mxGeometry>
        </mxCell>
        <mxCell id="mKfXotBZvSQ_9pwRW4Em-58" value="" style="endArrow=none;html=1;rounded=0;exitX=1;exitY=0.5;exitDx=0;exitDy=0;" parent="1" source="sgyy4WJZRjxo7go0eEJR-37" edge="1">
          <mxGeometry width="50" height="50" relative="1" as="geometry">
            <mxPoint x="460" y="270" as="sourcePoint" />
            <mxPoint x="870" y="210" as="targetPoint" />
          </mxGeometry>
        </mxCell>
      </root>
    </mxGraphModel>
  </diagram>
</mxfile>
